{
    "asset" : {
        "generator" : "Khronos glTF Blender I/O v1.4.40",
        "version" : "2.0"
    },
    "scene" : 0,
    "scenes" : [
        {
            "name" : "Scene",
            "nodes" : [
                0
            ]
        }
    ],
    "nodes" : [
        {
            "mesh" : 0,
            "name" : "13940_New_York_City_Brownstone_Building_v1_l2",
            "rotation" : [
                0.7071068286895752,
                0,
                0,
                0.7071067094802856
            ]
        }
    ],
    "materials" : [
        {
            "doubleSided" : true,
            "name" : "New_York_City_Brownstone_Building",
            "pbrMetallicRoughness" : {
                "baseColorTexture" : {
                    "index" : 0,
                    "texCoord" : 0
                },
                "metallicFactor" : 0
            }
        }
    ],
    "meshes" : [
        {
            "name" : "13940_New_York_City_Brownstone_Building_v1_l2",
            "primitives" : [
                {
                    "attributes" : {
                        "POSITION" : 0,
                        "NORMAL" : 1,
                        "TEXCOORD_0" : 2
                    },
                    "indices" : 3,
                    "material" : 0
                }
            ]
        }
    ],
    "textures" : [
        {
            "sampler" : 0,
            "source" : 0
        }
    ],
    "images" : [
        {
            "bufferView" : 4,
            "mimeType" : "image/jpeg",
            "name" : "New_York_City_Brownstone_Building_diffuse"
        }
    ],
    "accessors" : [
        {
            "bufferView" : 0,
            "componentType" : 5126,
            "count" : 50332,
            "max" : [
                359.7070007324219,
                1003.37158203125,
                193.25289916992188
            ],
            "min" : [
                -359.7680969238281,
                10.597399711608887,
                -193.25289916992188
            ],
            "type" : "VEC3"
        },
        {
            "bufferView" : 1,
            "componentType" : 5126,
            "count" : 50332,
            "type" : "VEC3"
        },
        {
            "bufferView" : 2,
            "componentType" : 5126,
            "count" : 50332,
            "type" : "VEC2"
        },
        {
            "bufferView" : 3,
            "componentType" : 5123,
            "count" : 247668,
            "type" : "SCALAR"
        }
    ],
    "bufferViews" : [
        {
            "buffer" : 0,
            "byteLength" : 603984,
            "byteOffset" : 0
        },
        {
            "buffer" : 0,
            "byteLength" : 603984,
            "byteOffset" : 603984
        },
        {
            "buffer" : 0,
            "byteLength" : 402656,
            "byteOffset" : 1207968
        },
        {
            "buffer" : 0,
            "byteLength" : 495336,
            "byteOffset" : 1610624
        },
        {
            "buffer" : 0,
            "byteLength" : 920593,
            "byteOffset" : 2105960
        }
    ],
    "samplers" : [
        {
            "magFilter" : 9729,
            "minFilter" : 9986
        }
    ],
    "buffers" : [
        {
            "byteLength" : 3026556,
            "uri" : "data:application/octet-stream;base64,"
        }
    ]
}
