{
    "asset" : {
        "generator" : "Khronos glTF Blender I/O v1.4.40",
        "version" : "2.0"
    },
    "scene" : 0,
    "scenes" : [
        {
            "name" : "Scene",
            "nodes" : [
                0,
                1,
                2
            ]
        }
    ],
    "nodes" : [
        {
            "mesh" : 0,
            "name" : "Nelsons_Column",
            "rotation" : [
                0.7071068286895752,
                0,
                0,
                0.7071067094802856
            ],
            "scale" : [
                0.0012173231225460768,
                0.0007909162086434662,
                0.0016068663680925965
            ],
            "translation" : [
                -0.0004890927812084556,
                0.0002917962847277522,
                0.4523652195930481
            ]
        },
        {
            "name" : "\u00d7\u00fe\u00d7\u00fc",
            "rotation" : [
                0.7071068286895752,
                0,
                0,
                0.7071067094802856
            ],
            "scale" : [
                0.009999999776482582,
                0.009999999776482582,
                0.009999999776482582
            ]
        },
        {
            "name" : "\u00a1\u00a1\u00d7\u00fd\u00d7\u00fb",
            "rotation" : [
                0.7071068286895752,
                0,
                0,
                0.7071067094802856
            ],
            "scale" : [
                0.009999999776482582,
                0.009999999776482582,
                0.009999999776482582
            ]
        }
    ],
    "materials" : [
        {
            "doubleSided" : true,
            "name" : "Material #1",
            "pbrMetallicRoughness" : {
                "roughnessFactor" : 0.7621585726737976
            }
        }
    ],
    "meshes" : [
        {
            "name" : "Mesh.057",
            "primitives" : [
                {
                    "attributes" : {
                        "POSITION" : 0,
                        "NORMAL" : 1
                    },
                    "indices" : 2,
                    "material" : 0
                }
            ]
        }
    ],
    "accessors" : [
        {
            "bufferView" : 0,
            "componentType" : 5126,
            "count" : 4524,
            "max" : [
                39.55802536010742,
                96.89108276367188,
                29.845430374145508
            ],
            "min" : [
                -38.75447082519531,
                -571.973876953125,
                -29.482229232788086
            ],
            "type" : "VEC3"
        },
        {
            "bufferView" : 1,
            "componentType" : 5126,
            "count" : 4524,
            "type" : "VEC3"
        },
        {
            "bufferView" : 2,
            "componentType" : 5123,
            "count" : 4524,
            "type" : "SCALAR"
        }
    ],
    "bufferViews" : [
        {
            "buffer" : 0,
            "byteLength" : 54288,
            "byteOffset" : 0
        },
        {
            "buffer" : 0,
            "byteLength" : 54288,
            "byteOffset" : 54288
        },
        {
            "buffer" : 0,
            "byteLength" : 9048,
            "byteOffset" : 108576
        }
    ],
    "buffers" : [
        {
            "byteLength" : 117624,
            "uri" : "data:application/octet-stream;base64,"
        }
    ]
}
