{
    "asset" : {
        "generator" : "Khronos glTF Blender I/O v1.4.40",
        "version" : "2.0"
    },
    "scene" : 0,
    "scenes" : [
        {
            "name" : "Scene",
            "nodes" : [
                0,
                1
            ]
        }
    ],
    "nodes" : [
        {
            "mesh" : 0,
            "name" : "Cylinder_Cylinder.002",
            "rotation" : [
                0.7071068286895752,
                0,
                0,
                0.7071067094802856
            ]
        },
        {
            "mesh" : 1,
            "name" : "Cube_Cube.008",
            "rotation" : [
                0.7071068286895752,
                0,
                0,
                0.7071067094802856
            ]
        }
    ],
    "materials" : [
        {
            "doubleSided" : true,
            "name" : "None",
            "pbrMetallicRoughness" : {
                "baseColorFactor" : [
                    0.800000011920929,
                    0.800000011920929,
                    0.800000011920929,
                    1
                ],
                "metallicFactor" : 0,
                "roughnessFactor" : 0.2546440064907074
            }
        }
    ],
    "meshes" : [
        {
            "name" : "Cylinder_Cylinder.002",
            "primitives" : [
                {
                    "attributes" : {
                        "POSITION" : 0,
                        "NORMAL" : 1,
                        "TEXCOORD_0" : 2
                    },
                    "indices" : 3,
                    "material" : 0
                }
            ]
        },
        {
            "name" : "Cube_Cube.008",
            "primitives" : [
                {
                    "attributes" : {
                        "POSITION" : 4,
                        "NORMAL" : 5,
                        "TEXCOORD_0" : 6
                    },
                    "indices" : 7,
                    "material" : 0
                }
            ]
        }
    ],
    "accessors" : [
        {
            "bufferView" : 0,
            "componentType" : 5126,
            "count" : 1792,
            "max" : [
                1.1041239500045776,
                1.0032446384429932,
                -0.006753191351890564
            ],
            "min" : [
                -0.8958759903907776,
                -0.9967553615570068,
                -10.646073341369629
            ],
            "type" : "VEC3"
        },
        {
            "bufferView" : 1,
            "componentType" : 5126,
            "count" : 1792,
            "type" : "VEC3"
        },
        {
            "bufferView" : 2,
            "componentType" : 5126,
            "count" : 1792,
            "type" : "VEC2"
        },
        {
            "bufferView" : 3,
            "componentType" : 5123,
            "count" : 2868,
            "type" : "SCALAR"
        },
        {
            "bufferView" : 4,
            "componentType" : 5126,
            "count" : 288,
            "max" : [
                0.8423680067062378,
                0.7502656579017639,
                -10.125081062316895
            ],
            "min" : [
                -0.650592029094696,
                -0.7426943182945251,
                -13.999258995056152
            ],
            "type" : "VEC3"
        },
        {
            "bufferView" : 5,
            "componentType" : 5126,
            "count" : 288,
            "type" : "VEC3"
        },
        {
            "bufferView" : 6,
            "componentType" : 5126,
            "count" : 288,
            "type" : "VEC2"
        },
        {
            "bufferView" : 7,
            "componentType" : 5123,
            "count" : 492,
            "type" : "SCALAR"
        }
    ],
    "bufferViews" : [
        {
            "buffer" : 0,
            "byteLength" : 21504,
            "byteOffset" : 0
        },
        {
            "buffer" : 0,
            "byteLength" : 21504,
            "byteOffset" : 21504
        },
        {
            "buffer" : 0,
            "byteLength" : 14336,
            "byteOffset" : 43008
        },
        {
            "buffer" : 0,
            "byteLength" : 5736,
            "byteOffset" : 57344
        },
        {
            "buffer" : 0,
            "byteLength" : 3456,
            "byteOffset" : 63080
        },
        {
            "buffer" : 0,
            "byteLength" : 3456,
            "byteOffset" : 66536
        },
        {
            "buffer" : 0,
            "byteLength" : 2304,
            "byteOffset" : 69992
        },
        {
            "buffer" : 0,
            "byteLength" : 984,
            "byteOffset" : 72296
        }
    ],
    "buffers" : [
        {
            "byteLength" : 73280,
            "uri" : "data:application/octet-stream;base64,"
        }
    ]
}
